<?xml version="1.0" standalone="no"?>
<!DOCTYPE svg PUBLIC "-//W3C//DTD SVG 20010904//EN"
 "http://www.w3.org/TR/2001/REC-SVG-20010904/DTD/svg10.dtd">
<svg version="1.0" xmlns="http://www.w3.org/2000/svg"
 width="458.000000pt" height="157.000000pt" viewBox="0 0 458.000000 157.000000"
 preserveAspectRatio="xMidYMid meet">

<g transform="translate(0.000000,157.000000) scale(0.100000,-0.100000)"
fill="#000000" stroke="none">
<path d="M243 1526 c-75 -24 -139 -80 -175 -154 -31 -62 -33 -73 -33 -172 0
-185 25 -227 257 -432 234 -207 267 -247 289 -347 20 -96 -19 -195 -88 -222
-13 -5 -44 -9 -69 -9 -114 0 -173 71 -204 242 -15 78 -15 79 -48 68 -15 -5
-53 -16 -85 -25 -53 -14 -57 -18 -57 -45 0 -85 48 -216 104 -285 71 -86 215
-134 347 -115 210 30 329 209 290 436 -24 134 -87 226 -264 381 -268 237 -286
260 -287 366 0 118 47 167 161 167 112 0 165 -56 189 -199 l11 -67 82 21 c80
21 82 23 85 54 4 41 -32 162 -63 211 -34 54 -98 105 -156 123 -62 21 -225 22
-286 3z"/>
<path d="M930 790 l0 -751 98 3 97 3 3 208 2 209 42 61 41 61 17 -39 c9 -22
54 -145 100 -272 l84 -233 99 0 c83 0 98 2 94 15 -4 8 -59 154 -123 325 l-116
311 121 200 c67 110 121 204 121 209 0 6 -40 10 -93 10 -77 0 -97 -3 -109 -17
-9 -10 -69 -103 -133 -208 -65 -104 -123 -196 -129 -204 -8 -10 -12 99 -16
420 l-5 434 -97 3 -98 3 0 -751z"/>
<path d="M2730 785 l0 -746 98 3 97 3 3 32 3 32 51 -37 c43 -30 61 -37 114
-40 84 -6 125 10 176 67 77 85 98 192 98 487 0 216 -11 319 -44 395 -63 149
-234 184 -363 75 l-33 -28 0 251 0 251 -100 0 -100 0 0 -745z m398 153 c38
-41 44 -97 40 -394 -3 -246 -5 -283 -21 -312 -30 -56 -98 -65 -182 -25 l-35
17 0 348 0 348 38 19 c54 29 132 28 160 -1z"/>
<path d="M3567 1524 c-10 -10 -8 -1456 1 -1472 6 -9 34 -12 103 -10 l94 3 0
740 0 740 -95 3 c-53 1 -99 0 -103 -4z"/>
<path d="M2320 1365 l0 -105 95 0 95 0 0 105 0 105 -95 0 -95 0 0 -105z"/>
<path d="M2084 1106 c-53 -17 -97 -50 -131 -100 l-28 -40 -5 70 -5 69 -97 3
-98 3 0 -536 0 -536 98 3 97 3 5 397 5 396 25 27 c46 50 121 68 198 46 l32
-10 0 110 0 109 -27 -1 c-16 0 -46 -6 -69 -13z"/>
<path d="M4148 1107 c-88 -25 -140 -81 -174 -187 -22 -72 -32 -489 -14 -613
27 -191 102 -266 272 -275 159 -8 237 28 289 134 26 52 32 79 37 154 l5 90
-95 0 -96 0 -4 -90 c-4 -77 -8 -93 -27 -114 -30 -32 -71 -41 -117 -26 -60 20
-74 65 -74 243 l0 147 205 0 c183 0 206 2 212 17 10 26 -15 302 -32 361 -19
62 -63 115 -119 144 -52 26 -198 34 -268 15z m196 -170 c18 -24 21 -45 24
-143 l4 -114 -111 0 -111 0 0 88 c0 99 12 154 41 183 16 16 31 19 76 17 48 -3
59 -7 77 -31z"/>
<path d="M2320 575 l0 -535 95 0 95 0 0 535 0 535 -95 0 -95 0 0 -535z"/>
</g>
</svg>
